PathFileType	4	(X/Y/Z)	./001.trc	
DataRate	CameraRate	NumFrames	NumMarkers	Units	OrigDataRate	OrigDataStartFrame	OrigNumFrames	
180	180	4	0	mm	180	357	951	
Frame#	Time	LIAS			RIAS			LIPS			RIPS			LFTC			RFTC			CV7			SJN			TV2			SXS			TV7			LAH			RAH			LPH			RPH			LHGT			LCAJ			LHLE			LUA			LHM2			LUSP			LRSP			RHGT			RCAJ			RHLE			RHME			RUA			RHM2			RUSP			RRSP			LFLE			LTH			LFAL			LTAM			LSK			LFAX			LTTC			LFM5			LFM2			LFM1			LFCC			LDP1			RFLE			RFME			RTH			RFAL			RTAM			RSK			RFAX			RTTC			RFM5			RFM2			RFM1			RFCC			RDP1			LHME				
		X1	Y1	Z1	X2	Y2	Z2	X3	Y3	Z3	X4	Y4	Z4	X5	Y5	Z5	X6	Y6	Z6	X7	Y7	Z7	X8	Y8	Z8	X9	Y9	Z9	X10	Y10	Z10	X11	Y11	Z11	X12	Y12	Z12	X13	Y13	Z13	X14	Y14	Z14	X15	Y15	Z15	X16	Y16	Z16	X17	Y17	Z17	X18	Y18	Z18	X19	Y19	Z19	X20	Y20	Z20	X21	Y21	Z21	X22	Y22	Z22	X23	Y23	Z23	X24	Y24	Z24	X25	Y25	Z25	X26	Y26	Z26	X27	Y27	Z27	X28	Y28	Z28	X29	Y29	Z29	X30	Y30	Z30	X31	Y31	Z31	X32	Y32	Z32	X33	Y33	Z33	X34	Y34	Z34	X35	Y35	Z35	X36	Y36	Z36	X37	Y37	Z37	X38	Y38	Z38	X39	Y39	Z39	X40	Y40	Z40	X41	Y41	Z41	X42	Y42	Z42	X43	Y43	Z43	X44	Y44	Z44	X45	Y45	Z45	X46	Y46	Z46	X47	Y47	Z47	X48	Y48	Z48	X49	Y49	Z49	X50	Y50	Z50	X51	Y51	Z51	X52	Y52	Z52	X53	Y53	Z53	X54	Y54	Z54	X55	Y55	Z55	X56	Y56	Z56		
	
3.570000000000000000e+02	1.977778000000000036e+00	-1.254220000000000113e+02	9.311030000000000655e+02	-1.429479999999999791e+02	-3.190919999999999845e+02	9.171519999999999300e+02	-2.735929999999999609e+02	-3.890899999999999892e+01	9.941290000000000191e+02	-3.818929999999999723e+02	-1.289449999999999932e+02	9.953349999999999227e+02	-4.446759999999999877e+02	-2.231899999999999906e+01	8.387280000000000655e+02	-1.350570000000000164e+02	-3.254449999999999932e+02	8.132169999999999845e+02	-3.791089999999999804e+02	-1.281539999999999964e+02	1.388744999999999891e+03	-4.025480000000000018e+02	-2.225509999999999877e+02	1.326067999999999984e+03	-2.652789999999999964e+02	-1.062010000000000076e+02	1.305271999999999935e+03	-4.366929999999999836e+02	-2.423410000000000082e+02	1.216714000000000169e+03	-2.177709999999999866e+02	-9.378300000000000125e+01	1.178085000000000036e+03	-4.484159999999999968e+02	-1.188739999999999952e+02	1.620905999999999949e+03	-3.210670000000000073e+02	-2.435569999999999879e+02	1.604967000000000098e+03	-2.690749999999999886e+02	-1.299859999999999900e+02	1.559776000000000067e+03	-4.092570000000000050e+02	-2.675169999999999959e+02	1.554400999999999840e+03	-3.720389999999999873e+02	1.655900000000000105e+01	1.290747000000000071e+03	-3.515349999999999682e+02	-2.273899999999999721e+01	1.358221999999999980e+03	-2.087120000000000175e+02	4.021399999999999864e+01	1.093031999999999925e+03	-8.058100000000000307e+01	7.216500000000000625e+01	1.148188999999999851e+03	-1.716409999999999911e+02	-2.572500000000000000e+02	1.154701000000000022e+03	-6.020499999999999829e+01	-2.068139999999999930e+02	1.071083999999999833e+03	-9.969100000000000250e+01	-2.097990000000000066e+02	1.160463999999999942e+03	-9.878600000000000136e+01	-2.326539999999999964e+02	1.291882999999999811e+03	-5.042660000000000196e+02	-2.931259999999999764e+02	1.362322999999999865e+03	-4.190699999999999932e+02	-4.548580000000000041e+02	1.079526000000000067e+03	-4.589019999999999868e+02	-3.439449999999999932e+02	1.026048999999999978e+03	-4.613460000000000036e+02	-3.682440000000000282e+02	1.163520999999999958e+03	-5.185969999999999800e+02	-3.997060000000000173e+02	1.137165999999999940e+03	-1.779339999999999975e+02	-3.930649999999999977e+02	1.050060999999999922e+03	-2.253410000000000082e+02	-3.446970000000000027e+02	1.125078999999999951e+03	-2.453519999999999754e+02	-5.036999999999999922e+00	5.074450000000000500e+02	-4.393599999999999994e+01	-1.317649999999999864e+02	6.097409999999999854e+02	-2.344099999999999895e+01	8.069400000000000261e+01	1.640010000000000048e+02	-9.946000000000000796e+01	-2.445100000000000051e+01	1.525860000000000127e+02	-1.137139999999999986e+02	-1.939099999999999824e+01	3.197930000000000064e+02	-3.136300000000000310e+01	2.982100000000000151e+01	4.555199999999999818e+02	-7.319899999999999807e+01	-1.046799999999999926e+02	4.630529999999999973e+02	-5.832000000000000739e+00	6.872399999999998954e+01	8.404300000000000637e+01	2.512999999999999901e+00	2.254099999999999682e+01	9.538199999999999079e+01	-4.599999999999999922e-02	-2.414000000000000057e+01	7.694299999999999784e+01	-2.108999999999999986e+01	6.194100000000000250e+01	1.470430000000000064e+02	-1.963729999999999905e+02	-2.781000000000000227e+01	6.450100000000000477e+01	2.836899999999999977e+01	-1.205840000000000032e+02	4.480439999999999827e+02	-3.024180000000000064e+02	-1.407909999999999968e+02	4.528539999999999850e+02	-1.170499999999999972e+02	-3.137780000000000200e+02	6.562079999999999700e+02	-2.724440000000000168e+02	-1.968580000000000041e+02	9.102499999999999147e+01	-3.865759999999999650e+02	-1.223520000000000039e+02	1.012369999999999948e+02	-2.989580000000000268e+02	-2.199919999999999902e+02	1.734350000000000023e+02	-3.177690000000000055e+02	-2.420900000000000034e+02	3.974110000000000014e+02	-4.152850000000000250e+02	-2.549529999999999745e+02	3.999510000000000218e+02	-3.061940000000000168e+02	-2.693820000000000050e+02	5.615099999999999625e+01	-2.997819999999999823e+02	-2.475289999999999964e+02	6.868299999999999272e+01	-2.531140000000000043e+02	-2.211059999999999945e+02	5.905100000000000193e+01	-2.181119999999999948e+02	-1.060120000000000005e+02	6.449499999999999034e+01	-4.145190000000000055e+02	-2.476370000000000005e+02	5.376999999999999602e+01	-1.731440000000000055e+02	-9.947599999999999909e+01	5.614559999999999036e+02	-2.811999999999999886e+02
3.580000000000000000e+02	1.983333000000000013e+00	-1.253469999999999800e+02	9.314299999999999500e+02	-1.430990000000000180e+02	-3.191129999999999995e+02	9.171740000000000919e+02	-2.735380000000000109e+02	-3.906900000000000261e+01	9.944589999999999463e+02	-3.820219999999999914e+02	-1.291490000000000009e+02	9.954920000000000755e+02	-4.447110000000000127e+02	-2.217900000000000205e+01	8.390660000000000309e+02	-1.352119999999999891e+02	-3.254099999999999682e+02	8.131989999999999554e+02	-3.790510000000000446e+02	-1.287500000000000000e+02	1.388859000000000151e+03	-4.029139999999999873e+02	-2.231269999999999811e+02	1.326164999999999964e+03	-2.655419999999999732e+02	-1.066710000000000065e+02	1.305415999999999940e+03	-4.369590000000000032e+02	-2.427749999999999773e+02	1.216865000000000009e+03	-2.179319999999999879e+02	-9.411500000000000909e+01	1.178211999999999989e+03	-4.485749999999999886e+02	-1.195750000000000028e+02	1.621076000000000022e+03	-3.219460000000000264e+02	-2.435519999999999925e+02	1.605034000000000106e+03	-2.686529999999999632e+02	-1.313900000000000148e+02	1.559946999999999889e+03	-4.099739999999999895e+02	-2.685270000000000437e+02	1.554523000000000138e+03	-3.713929999999999723e+02	1.621300000000000097e+01	1.291088999999999942e+03	-3.518419999999999845e+02	-2.353200000000000003e+01	1.358573999999999842e+03	-2.092050000000000125e+02	4.002599999999999625e+01	1.094622999999999820e+03	-7.938800000000000523e+01	7.189400000000000546e+01	1.149164999999999964e+03	-1.708460000000000036e+02	-2.581709999999999923e+02	1.154358999999999924e+03	-5.906000000000000227e+01	-2.068649999999999807e+02	1.070881999999999834e+03	-9.774399999999999977e+01	-2.109840000000000089e+02	1.160495999999999867e+03	-9.798900000000000432e+01	-2.330639999999999930e+02	1.291843000000000075e+03	-5.044699999999999704e+02	-2.936549999999999727e+02	1.362216000000000122e+03	-4.193640000000000327e+02	-4.552189999999999941e+02	1.079402999999999793e+03	-4.595600000000000023e+02	-3.444530000000000314e+02	1.025821000000000140e+03	-4.615120000000000005e+02	-3.685280000000000200e+02	1.163369000000000142e+03	-5.189270000000000209e+02	-4.016659999999999968e+02	1.135947000000000116e+03	-1.777759999999999820e+02	-3.941519999999999868e+02	1.049230999999999995e+03	-2.255399999999999920e+02	-3.461689999999999827e+02	1.124735999999999876e+03	-2.453009999999999877e+02	-5.142999999999999794e+00	5.076619999999999209e+02	-4.376300000000000523e+01	-1.316410000000000196e+02	6.104300000000000637e+02	-2.316600000000000037e+01	7.893799999999998818e+01	1.635120000000000005e+02	-9.795700000000000784e+01	-2.628099999999999881e+01	1.526419999999999959e+02	-1.119070000000000107e+02	-2.031000000000000227e+01	3.201730000000000018e+02	-3.036399999999999721e+01	2.939599999999999724e+01	4.554689999999999941e+02	-7.294700000000000273e+01	-1.048479999999999990e+02	4.637800000000000296e+02	-5.277999999999999581e+00	6.677500000000000568e+01	8.404599999999999227e+01	4.338000000000000078e+00	2.066600000000000037e+01	9.565200000000000102e+01	1.886000000000000121e+00	-2.617099999999999937e+01	7.730899999999999750e+01	-1.896199999999999974e+01	5.992399999999999949e+01	1.462229999999999848e+02	-1.947740000000000009e+02	-2.983299999999999841e+01	6.535299999999999443e+01	3.081499999999999773e+01	-1.205460000000000065e+02	4.480450000000000159e+02	-3.023640000000000327e+02	-1.414080000000000155e+02	4.533929999999999723e+02	-1.166380000000000052e+02	-3.137590000000000146e+02	6.561940000000000737e+02	-2.723990000000000009e+02	-1.968590000000000089e+02	9.103300000000000125e+01	-3.865749999999999886e+02	-1.223680000000000092e+02	1.012530000000000001e+02	-2.989399999999999977e+02	-2.199969999999999857e+02	1.734559999999999889e+02	-3.177690000000000055e+02	-2.420289999999999964e+02	3.974399999999999977e+02	-4.152699999999999818e+02	-2.549390000000000214e+02	3.999830000000000041e+02	-3.061879999999999882e+02	-2.693999999999999773e+02	5.615200000000000102e+01	-2.997929999999999495e+02	-2.475409999999999968e+02	6.868500000000000227e+01	-2.531189999999999714e+02	-2.211179999999999950e+02	5.903300000000000125e+01	-2.181240000000000236e+02	-1.060129999999999910e+02	6.450699999999999079e+01	-4.145150000000000432e+02	-2.476490000000000009e+02	5.376700000000000301e+01	-1.731389999999999816e+02	-8.943099999999999739e+01	6.154269999999999072e+02	-2.709079999999999586e+02
3.590000000000000000e+02	1.988888999999999907e+00	-1.252669999999999959e+02	9.317400000000000091e+02	-1.432350000000000136e+02	-3.191089999999999804e+02	9.171979999999999791e+02	-2.734639999999999986e+02	-3.923900000000000432e+01	9.947709999999999582e+02	-3.821539999999999964e+02	-1.293739999999999952e+02	9.956330000000000382e+02	-4.447189999999999941e+02	-2.201800000000000068e+01	8.394049999999999727e+02	-1.353640000000000043e+02	-3.253789999999999623e+02	8.131899999999999409e+02	-3.789580000000000268e+02	-1.293389999999999986e+02	1.388960000000000036e+03	-4.032339999999999804e+02	-2.236980000000000075e+02	1.326254000000000133e+03	-2.658100000000000023e+02	-1.071250000000000000e+02	1.305544999999999845e+03	-4.372040000000000077e+02	-2.431839999999999975e+02	1.216990000000000009e+03	-2.180749999999999886e+02	-9.446300000000000807e+01	1.178334000000000060e+03	-4.487229999999999563e+02	-1.200769999999999982e+02	1.621196000000000140e+03	-3.227450000000000045e+02	-2.435409999999999968e+02	1.605091999999999871e+03	-2.682660000000000196e+02	-1.327220000000000084e+02	1.560110000000000127e+03	-4.107060000000000173e+02	-2.694699999999999704e+02	1.554597999999999956e+03	-3.708429999999999609e+02	1.584699999999999953e+01	1.291442000000000007e+03	-3.520949999999999704e+02	-2.433699999999999974e+01	1.358899000000000115e+03	-2.096469999999999914e+02	3.974500000000000455e+01	1.095855000000000018e+03	-7.850100000000000477e+01	7.163100000000000023e+01	1.150125999999999976e+03	-1.699950000000000045e+02	-2.590600000000000023e+02	1.154120999999999867e+03	-5.786700000000000443e+01	-2.066379999999999768e+02	1.070902000000000044e+03	-9.517299999999998761e+01	-2.123319999999999936e+02	1.160360999999999876e+03	-9.688800000000000523e+01	-2.334789999999999850e+02	1.291779999999999973e+03	-5.046629999999999541e+02	-2.941899999999999977e+02	1.362108999999999924e+03	-4.196289999999999623e+02	-4.556059999999999945e+02	1.079275000000000091e+03	-4.601100000000000136e+02	-3.449329999999999927e+02	1.025608999999999924e+03	-4.616239999999999668e+02	-3.688000000000000114e+02	1.163221999999999980e+03	-5.192540000000000191e+02	-4.036940000000000168e+02	1.134656999999999925e+03	-1.775460000000000207e+02	-3.955679999999999836e+02	1.048440000000000055e+03	-2.259950000000000045e+02	-3.478919999999999959e+02	1.124362000000000080e+03	-2.451980000000000075e+02	-5.185999999999999943e+00	5.078690000000000282e+02	-4.357799999999999585e+01	-1.314510000000000218e+02	6.110409999999999400e+02	-2.294900000000000162e+01	7.726099999999999568e+01	1.630020000000000095e+02	-9.644100000000000250e+01	-2.802299999999999969e+01	1.527009999999999934e+02	-1.100320000000000107e+02	-2.110000000000000142e+01	3.204959999999999809e+02	-2.935999999999999943e+01	2.907499999999999929e+01	4.553670000000000186e+02	-7.266599999999999682e+01	-1.049950000000000045e+02	4.644800000000000182e+02	-4.747999999999999332e+00	6.486100000000000421e+01	8.391899999999999693e+01	6.241999999999999993e+00	1.884600000000000009e+01	9.583999999999998920e+01	3.834000000000000075e+00	-2.817000000000000171e+01	7.770199999999999818e+01	-1.680099999999999838e+01	5.790800000000000125e+01	1.454279999999999973e+02	-1.930850000000000080e+02	-3.175000000000000000e+01	6.603799999999999670e+01	3.303600000000000136e+01	-1.205100000000000051e+02	4.480600000000000023e+02	-3.023129999999999882e+02	-1.415109999999999957e+02	4.539409999999999741e+02	-1.158109999999999928e+02	-3.137010000000000218e+02	6.561890000000000782e+02	-2.723329999999999700e+02	-1.968580000000000041e+02	9.104200000000000159e+01	-3.865830000000000268e+02	-1.223769999999999953e+02	1.012570000000000050e+02	-2.989399999999999977e+02	-2.200070000000000050e+02	1.734850000000000136e+02	-3.177749999999999773e+02	-2.419739999999999895e+02	3.974750000000000227e+02	-4.152649999999999864e+02	-2.549130000000000109e+02	4.000040000000000191e+02	-3.061840000000000259e+02	-2.694200000000000159e+02	5.614199999999999591e+01	-2.997980000000000018e+02	-2.475660000000000025e+02	6.868899999999999295e+01	-2.531140000000000043e+02	-2.211289999999999907e+02	5.902799999999999869e+01	-2.181140000000000043e+02	-1.060139999999999958e+02	6.451099999999999568e+01	-4.145079999999999814e+02	-2.476779999999999973e+02	5.375900000000000034e+01	-1.731149999999999807e+02	-7.839200000000001012e+01	6.749220000000000255e+02	-2.594689999999999941e+02
3.600000000000000000e+02	1.994444000000000106e+00	-1.251619999999999919e+02	9.320049999999999955e+02	-1.433379999999999939e+02	-3.191059999999999945e+02	9.172119999999999891e+02	-2.733809999999999718e+02	-3.937700000000000244e+01	9.950389999999999873e+02	-3.822880000000000109e+02	-1.295800000000000125e+02	9.957640000000000100e+02	-4.446929999999999836e+02	-2.182600000000000051e+01	8.397119999999999891e+02	-1.355600000000000023e+02	-3.253509999999999991e+02	8.131760000000000446e+02	-3.788429999999999609e+02	-1.298660000000000139e+02	1.389045000000000073e+03	-4.035619999999999550e+02	-2.242319999999999993e+02	1.326314999999999827e+03	-2.660299999999999727e+02	-1.075519999999999925e+02	1.305665999999999940e+03	-4.374310000000000400e+02	-2.435850000000000080e+02	1.216993999999999915e+03	-2.183319999999999936e+02	-9.478399999999999181e+01	1.178461000000000013e+03	-4.488489999999999895e+02	-1.203719999999999999e+02	1.621256000000000085e+03	-3.234490000000000123e+02	-2.435390000000000157e+02	1.605147000000000162e+03	-2.679759999999999991e+02	-1.339970000000000141e+02	1.560233999999999924e+03	-4.114030000000000200e+02	-2.703840000000000146e+02	1.554680000000000064e+03	-3.703029999999999973e+02	1.552100000000000080e+01	1.291795000000000073e+03	-3.523100000000000023e+02	-2.517099999999999937e+01	1.359222999999999956e+03	-2.101280000000000143e+02	3.966999999999999460e+01	1.097272999999999911e+03	-7.761500000000000909e+01	7.135900000000000887e+01	1.151089999999999918e+03	-1.691490000000000009e+02	-2.599189999999999827e+02	1.153947999999999865e+03	-5.651899999999999835e+01	-2.069579999999999984e+02	1.070478000000000065e+03	-9.321500000000000341e+01	-2.124429999999999836e+02	1.159701000000000022e+03	-9.544199999999999307e+01	-2.338939999999999770e+02	1.291708000000000084e+03	-5.048729999999999905e+02	-2.946810000000000400e+02	1.361988999999999805e+03	-4.198979999999999677e+02	-4.560240000000000009e+02	1.079192000000000007e+03	-4.606430000000000291e+02	-3.454470000000000027e+02	1.025435000000000173e+03	-4.617419999999999618e+02	-3.690600000000000023e+02	1.163076000000000022e+03	-5.195589999999999691e+02	-4.058300000000000409e+02	1.133389999999999873e+03	-1.773429999999999893e+02	-3.971689999999999827e+02	1.047654999999999973e+03	-2.265459999999999923e+02	-3.497700000000000387e+02	1.124045000000000073e+03	-2.449459999999999980e+02	-5.177000000000000490e+00	5.080310000000000059e+02	-4.342399999999999949e+01	-1.312230000000000132e+02	6.116080000000000609e+02	-2.277799999999999869e+01	7.563400000000000034e+01	1.624110000000000014e+02	-9.473799999999999955e+01	-2.970599999999999952e+01	1.527600000000000193e+02	-1.080929999999999893e+02	-2.189699999999999847e+01	3.208400000000000318e+02	-2.829400000000000048e+01	2.882399999999999807e+01	4.552309999999999945e+02	-7.235600000000000875e+01	-1.048029999999999973e+02	4.652149999999999750e+02	-4.356999999999999318e+00	6.297400000000000375e+01	8.373600000000000421e+01	8.234999999999999432e+00	1.703599999999999781e+01	9.597999999999998977e+01	5.887999999999999901e+00	-3.025699999999999790e+01	7.816700000000000159e+01	-1.457600000000000051e+01	5.621999999999999886e+01	1.446550000000000011e+02	-1.915370000000000061e+02	-3.371799999999999642e+01	6.662700000000000955e+01	3.525600000000000023e+01	-1.205000000000000000e+02	4.480649999999999977e+02	-3.022629999999999768e+02	-1.417500000000000000e+02	4.544399999999999977e+02	-1.152720000000000056e+02	-3.136120000000000232e+02	6.561870000000000118e+02	-2.722370000000000232e+02	-1.968739999999999952e+02	9.104600000000000648e+01	-3.865810000000000173e+02	-1.223840000000000003e+02	1.012640000000000100e+02	-2.989379999999999882e+02	-2.200180000000000007e+02	1.735049999999999955e+02	-3.178039999999999736e+02	-2.419180000000000064e+02	3.975040000000000191e+02	-4.152649999999999864e+02	-2.549020000000000152e+02	4.000210000000000150e+02	-3.061779999999999973e+02	-2.694369999999999550e+02	5.614000000000000057e+01	-2.998170000000000073e+02	-2.475999999999999943e+02	6.868599999999999284e+01	-2.531289999999999907e+02	-2.211519999999999868e+02	5.900900000000000034e+01	-2.181359999999999957e+02	-1.060139999999999958e+02	6.451399999999999579e+01	-4.144950000000000045e+02	-2.477370000000000232e+02	5.375300000000000011e+01	-1.730709999999999980e+02	-6.681499999999999773e+01	7.375810000000000173e+02	-2.472900000000000205e+02
